<?xml version="1.0" standalone="no"?>
<!DOCTYPE svg PUBLIC "-//W3C//DTD SVG 20010904//EN"
 "http://www.w3.org/TR/2001/REC-SVG-20010904/DTD/svg10.dtd">
<svg version="1.0" xmlns="http://www.w3.org/2000/svg"
 width="280.032721pt" height="416.390823pt" viewBox="0 0 280.032721 416.390823"
 preserveAspectRatio="xMidYMid meet">
<metadata>
Created by potrace 1.12, written by Peter Selinger 2001-2015
</metadata>
<g transform="translate(-109.992367,449.677995) scale(0.100000,-0.100000)"
fill="#000000" stroke="none">
<path d="M1795 4089 l-690 -407 -3 -1264 -2 -1265 200 -120 200 -121 1 122 c1
66 0 636 -1 1266 l-2 1146 494 292 495 292 506 -292 507 -292 0 -116 c0 -99
-2 -117 -17 -126 -130 -81 -958 -564 -967 -564 -7 0 -140 77 -295 170 -155 93
-284 170 -287 170 -2 0 -4 -107 -4 -237 l0 -238 288 -165 c158 -91 294 -165
302 -164 8 0 322 182 698 404 l682 404 -2 349 -3 348 -615 355 c-338 195 -656
379 -705 408 l-91 53 -689 -408z"/>
<path d="M3640 2403 c-564 -329 -1155 -663 -1164 -659 -12 5 -71 41 -373 225
-104 63 -191 116 -195 118 -5 2 -8 -106 -8 -241 0 -190 3 -246 13 -246 6 0
138 -73 292 -163 l280 -162 684 392 c376 216 688 390 692 388 4 -3 9 -1 11 5
6 20 -3 470 -10 469 -4 0 -104 -57 -222 -126z"/>
<path d="M3664 1472 c-111 -65 -420 -242 -688 -396 l-486 -278 -77 44 c-43 25
-172 102 -286 172 -115 70 -211 126 -213 124 -2 -2 -4 -109 -4 -237 l-1 -233
289 -167 290 -168 679 388 c373 214 686 389 696 389 16 0 17 18 17 240 0 132
-3 240 -7 239 -5 0 -99 -53 -209 -117z"/>
</g>
</svg>
